<svg width="18" height="18" viewBox="0 0 18 18" fill="#FFF" xmlns="http://www.w3.org/2000/svg">
<g clip-path="url(#clip0_15_152)">
<path d="M7.18632 0.185899C7.50419 0.119986 7.82206 0.073115 8.13554 0.0423558C8.45781 0.0115965 8.77714 -0.0030507 9.09208 -0.000121248C9.26933 0.00134348 9.41142 0.146351 9.40995 0.323583C9.40849 0.459802 9.32206 0.575515 9.20195 0.620922C7.86161 1.14822 6.78935 2.13105 6.13163 3.34824C5.48417 4.54492 5.23808 5.96717 5.53251 7.4026L5.53398 7.41285C5.86943 9.03284 6.82744 10.3643 8.10917 11.2079C9.38945 12.0516 10.9905 12.4061 12.6106 12.0751L12.6209 12.0736C13.7869 11.8319 14.802 11.2695 15.5945 10.4946C16.4148 9.69343 16.9949 8.66665 17.2542 7.54175C17.2937 7.36891 17.4666 7.26198 17.638 7.30153C17.7684 7.33229 17.8621 7.43775 17.8826 7.56225C18.2693 9.93511 17.6849 12.2596 16.409 14.111C15.139 15.9537 13.1819 17.329 10.8162 17.8153C8.38163 18.3163 5.9749 17.7831 4.05156 16.5176C2.12675 15.2477 0.68681 13.2483 0.185833 10.8139C-0.303425 8.43669 0.193157 6.08581 1.39579 4.18606C2.60429 2.28045 4.52324 0.825983 6.87138 0.256206C6.91679 0.244488 6.96952 0.23277 7.02665 0.219587H7.02812L7.18632 0.185899Z" fill="white"/>
</g>
<defs>
<clipPath id="clip0_15_152">
<rect width="18" height="18" fill="white"/>
</clipPath>
</defs>
</svg>
